<svg width="120" height="120" viewBox="0 0 120 120" fill="none" xmlns="http://www.w3.org/2000/svg">
<g clip-path="url(#clip0_2221_2)">
<mask id="mask0_2221_2" style="mask-type:luminance" maskUnits="userSpaceOnUse" x="0" y="0" width="120" height="120">
<path d="M119.5 0.5V119.5H0.5V0.5H119.5Z" fill="white" stroke="white"/>
</mask>
<g mask="url(#mask0_2221_2)">
<path d="M49.0027 41.8521H55.3865C57.5388 41.8521 59.0509 42.3168 60.0144 43.1567C60.9598 43.9809 61.4812 45.3016 61.4812 47.2319V62.8979C61.4812 64.7965 60.961 66.1221 60.0085 66.9771C59.0448 67.8141 57.535 68.2778 55.3865 68.2778H49.0027C46.8536 68.2778 45.3433 67.8146 44.3796 66.9771C43.4561 66.1228 42.9509 64.7964 42.9509 62.8979V47.2319C42.9509 45.2979 43.4596 43.975 44.3796 43.1519C45.2831 42.367 46.6674 41.9119 48.6072 41.8579L49.0027 41.8521ZM92.073 42.061V42.062L96.6423 42.2163L102.427 67.8999H98.5417L97.3767 62.4741H98.5535L97.4919 61.5903L95.8748 60.2427L96.1394 61.4741H87.6687L87.9822 60.1968L86.8142 61.1704L86.3103 61.5903L85.2488 62.4741H86.3933L85.0623 67.8999H81.4841L87.196 46.2749C87.5275 45.0873 87.8653 44.1889 88.2039 43.564C88.5144 42.9906 88.9426 42.6155 89.4939 42.4087L89.5027 42.4048L89.5105 42.4019C90.0892 42.1607 90.9317 42.0344 92.073 42.061ZM81.3171 42.23V45.5142H75.9753V44.0933L75.1218 44.9468L74.407 45.6606L73.5535 46.5142H74.9753V67.8999H71.0613V46.5142H72.4822L70.0613 44.0933V45.5142H64.7185V42.23H81.3171ZM31.0925 42.062C33.2586 42.0078 34.8042 42.4976 35.822 43.4409L35.8269 43.4448C36.8711 44.3897 37.4255 45.7785 37.4255 47.6938V51.936C37.4255 53.3671 37.0583 54.5473 36.3435 55.5044L36.1951 55.6929L36.1902 55.6987C35.7073 56.3063 35.072 56.7826 34.2693 57.1196C33.8399 56.885 33.3531 56.7154 32.8132 56.6108L32.2175 56.4956V58.6567L32.7986 58.561C33.2777 58.4825 33.7291 58.3715 34.1521 58.23C34.2488 58.3034 34.3396 58.3804 34.4226 58.4634C34.8527 58.8935 35.255 59.5858 35.6062 60.5854V60.5864L38.1853 67.8999H34.2957L31.2185 58.7075L31.2156 58.6987L31.2117 58.6909L31.1404 58.5132C31.0768 58.3692 30.9982 58.2341 30.905 58.1216C30.8018 57.9564 30.6483 57.86 30.5056 57.8081C30.3527 57.7525 30.1864 57.7358 30.03 57.7358H25.238V56.231L22.7332 58.7358H24.238V67.8999H20.282V42.2222L31.0876 42.062H31.0925ZM47.9949 45.3042C47.7498 45.3042 47.4743 45.3658 47.2634 45.5767C47.0526 45.7875 46.991 46.063 46.991 46.3081V63.8218C46.991 64.0668 47.0527 64.3424 47.2634 64.5532C47.4743 64.7641 47.7498 64.8257 47.9949 64.8257H56.4373C56.6822 64.8256 56.958 64.7639 57.1687 64.5532C57.3793 64.3424 57.4412 64.0667 57.4412 63.8218V46.3081C57.4412 46.0631 57.3793 45.7875 57.1687 45.5767C56.958 45.3659 56.6822 45.3043 56.4373 45.3042H47.9949ZM91.4187 45.4722C91.2113 45.4722 90.9097 45.519 90.7097 45.7651C90.6287 45.8529 90.5764 45.9539 90.5417 46.0317C90.501 46.1234 90.465 46.2276 90.4333 46.3384L90.4294 46.354L87.6902 57.2319H86.5984L87.2478 58.0444L87.5837 58.4644L88.2136 59.2515L88.4587 58.2739L88.4695 58.2319H95.4597L95.4656 58.2603L95.6912 59.2808L96.3445 58.4644L96.6804 58.0444L97.3308 57.2319H96.2625L93.7546 45.8647L93.6677 45.4722H91.4187ZM24.3572 44.6821L23.6433 45.522L22.9431 46.3462H24.238V53.4937H22.864L25.238 56.0073V54.4937H32.2976C32.5618 54.4937 32.8533 54.4334 33.0789 54.2241C33.3115 54.0081 33.3855 53.7167 33.3855 53.4478V46.3921C33.3855 46.1232 33.3115 45.8317 33.0789 45.6157C32.8533 45.4065 32.5617 45.3462 32.2976 45.3462H25.238V43.646L24.3572 44.6821Z" fill="#F76435" stroke="#F76435"/>
<path d="M49.1711 75.7827C50.0198 75.7827 50.5273 76.0232 50.8225 76.3989L50.8284 76.4058C51.1362 76.7837 51.321 77.313 51.344 78.0386L42.8303 90.0854C42.6827 90.2814 42.6163 90.5196 42.6584 90.7729L42.6653 90.812L42.677 90.8491C42.7252 90.9936 42.8172 91.1363 42.968 91.2368C43.1144 91.3344 43.2742 91.3638 43.4114 91.3638H50.97L50.9514 93.1284H41.4524C40.7254 93.1284 40.2565 92.9297 39.9563 92.6069C39.6754 92.2679 39.5036 91.7909 39.4807 91.1304L48.1692 78.7671L48.176 78.7573C48.2469 78.651 48.3082 78.517 48.3225 78.3599C48.3337 78.2366 48.3141 78.118 48.2698 78.0103L48.1995 77.8696C48.1373 77.7669 48.0492 77.6796 47.9377 77.6177C47.7984 77.5403 47.6524 77.5191 47.5295 77.519H47.5276L40.2825 77.5464V75.7827H49.1711ZM77.762 75.6968C79.224 75.6602 80.2378 75.9913 80.8948 76.6001C81.5524 77.2096 81.9153 78.1162 81.9153 79.4019V82.8003C81.9152 83.575 81.7574 84.2412 81.4553 84.812C81.1616 85.3669 80.7113 85.8054 80.0842 86.1274L80.0793 86.1304C79.4786 86.4474 78.71 86.6196 77.7502 86.6196H73.9583V84.6538H78.5852C78.7878 84.6538 79.033 84.6071 79.2278 84.4263C79.4296 84.2389 79.4885 83.9905 79.4885 83.7788V78.5083C79.4884 78.2967 79.4293 78.0491 79.2278 77.8618C79.033 77.6809 78.7878 77.6343 78.5852 77.6343H73.9583V76.1978L73.0774 77.2349L72.5881 77.8101L71.8879 78.6343H72.9583V83.6538H71.8088L72.6057 84.4966L73.095 85.0151L73.6555 85.6089L73.0959 86.1997L72.5491 86.7759L71.7463 87.6196H72.9583V93.1001H70.5598V75.8042L77.7571 75.6968H77.762ZM60.2542 75.6958V75.6968L63.2668 75.7983L67.1624 93.1001H64.8225L64.0911 89.6938H65.137L64.0764 88.8091L63.7307 88.521L62.6926 87.6567L63.3108 86.8853L63.5413 86.5972L64.1917 85.7847H63.259L61.5657 78.1128L61.4788 77.7212H59.8108C59.6531 77.7212 59.3875 77.756 59.2063 77.9761C59.1354 78.054 59.0917 78.1393 59.0657 78.1978C59.0337 78.2697 59.0065 78.3491 58.9836 78.4292L58.9817 78.437L58.9797 78.4438L57.1321 85.7847H56.178L56.8284 86.5972L57.0579 86.8853L57.6418 87.6138L56.553 88.521L56.2073 88.8091L55.1458 89.6938H56.1643L55.3293 93.1001H53.2024L57.0667 78.4702C57.2925 77.6611 57.5203 77.0578 57.7444 76.644C57.9406 76.282 58.206 76.0519 58.5461 75.9243L58.554 75.9214L58.5627 75.9175C58.9304 75.7643 59.4824 75.6779 60.2542 75.6958ZM62.4563 86.7847L62.637 87.6108L62.6174 87.5942L62.8538 88.6938H57.4397L57.7209 87.5483L57.718 87.5503L57.9114 86.7847H62.4563Z" fill="#F76435" stroke="#F76435"/>
<path d="M60 3C91.4802 3 117 28.5198 117 60C117 91.4802 91.4802 117 60 117C28.5198 117 3 91.4802 3 60C3 28.5198 28.5198 3 60 3Z" stroke="#F76435" stroke-width="5"/>
</g>
</g>
<defs>
<clipPath id="clip0_2221_2">
<rect width="120" height="120" fill="white"/>
</clipPath>
</defs>
</svg>
