<svg width="100" height="100" viewBox="0 0 100 100" fill="none" xmlns="http://www.w3.org/2000/svg">
<g clip-path="url(#clip0_2012_12)">
<path d="M20.615 57H16.485V34.775L25.9 34.635C27.7667 34.5883 29.1783 35.0083 30.135 35.895C31.115 36.7817 31.605 38.065 31.605 39.745V43.28C31.605 44.6333 31.2317 45.765 30.485 46.675C29.7617 47.585 28.6883 48.1567 27.265 48.39V47.585C27.9883 47.725 28.56 48.005 28.98 48.425C29.4 48.845 29.7617 49.4867 30.065 50.35L32.41 57H28.28L25.62 49.055C25.55 48.8683 25.48 48.74 25.41 48.67C25.3633 48.5767 25.235 48.53 25.025 48.53H19.95L20.615 47.865V57ZM20.615 37.505V45.625L20.02 44.995H26.915C27.2417 44.995 27.405 44.8433 27.405 44.54V38.66C27.405 38.3567 27.2417 38.205 26.915 38.205H20.02L20.615 37.505ZM47.0307 38.17H39.9957C39.7157 38.17 39.5757 38.31 39.5757 38.59V53.185C39.5757 53.465 39.7157 53.605 39.9957 53.605H47.0307C47.3107 53.605 47.4507 53.465 47.4507 53.185V38.59C47.4507 38.31 47.3107 38.17 47.0307 38.17ZM35.3757 52.415V39.36C35.3757 37.68 35.819 36.4433 36.7057 35.65C37.6157 34.8567 38.9924 34.46 40.8357 34.46H46.1557C47.999 34.46 49.3757 34.8567 50.2857 35.65C51.1957 36.4433 51.6507 37.68 51.6507 39.36V52.415C51.6507 54.0717 51.1957 55.3083 50.2857 56.125C49.3757 56.9183 47.999 57.315 46.1557 57.315H40.8357C38.9924 57.315 37.6157 56.9183 36.7057 56.125C35.819 55.3083 35.3757 54.0717 35.3757 52.415ZM62.8958 57H58.8008V37.75L59.3958 38.345H53.5158V34.775H68.1808V38.345H62.3008L62.8958 37.75V57ZM85.8769 57H81.7819L80.5569 51.295L80.9769 51.645H72.1919L72.6119 51.295L71.2119 57H67.3619L72.2619 38.45C72.5419 37.4467 72.8335 36.665 73.1369 36.105C73.4402 35.545 73.8719 35.16 74.4319 34.95C74.9919 34.7167 75.7619 34.6117 76.7419 34.635L80.8719 34.775L85.8769 57ZM75.7619 38.73L73.3119 48.46L73.0319 48.11H80.2419L79.9619 48.46L77.7219 38.31H76.1819C76.0419 38.31 75.9485 38.345 75.9019 38.415C75.8552 38.4617 75.8085 38.5667 75.7619 38.73Z" fill="white"/>
<path d="M42.896 75.72L42.872 78.024H34.544C33.856 78.024 33.336 77.832 32.984 77.448C32.648 77.048 32.48 76.504 32.48 75.816L39.8 65.4C39.864 65.304 39.872 65.216 39.824 65.136C39.792 65.056 39.72 65.016 39.608 65.016L33.152 65.04V62.736H40.976C41.76 62.736 42.328 62.96 42.68 63.408C43.032 63.84 43.208 64.424 43.208 65.16L36.032 75.312C35.968 75.392 35.944 75.48 35.96 75.576C35.992 75.672 36.064 75.72 36.176 75.72H42.896ZM56.4901 78H53.6821L52.8421 74.088L53.1301 74.328H47.1061L47.3941 74.088L46.4341 78H43.7941L47.1541 65.28C47.3461 64.592 47.5461 64.056 47.7541 63.672C47.9621 63.288 48.2581 63.024 48.6421 62.88C49.0261 62.72 49.5541 62.648 50.2261 62.664L53.0581 62.76L56.4901 78ZM49.5541 65.472L47.8741 72.144L47.6821 71.904H52.6261L52.4341 72.144L50.8981 65.184H49.8421C49.7461 65.184 49.6821 65.208 49.6501 65.256C49.6181 65.288 49.5861 65.36 49.5541 65.472ZM61.2157 78H58.3837V62.76L64.7917 62.664C66.0717 62.632 67.0397 62.92 67.6957 63.528C68.3517 64.136 68.6797 65.016 68.6797 66.168V69C68.6797 69.704 68.5357 70.328 68.2477 70.872C67.9597 71.416 67.5197 71.84 66.9277 72.144C66.3517 72.448 65.6397 72.6 64.7917 72.6H60.7597L61.2157 72.12V78ZM61.2157 64.632V70.56L60.8077 70.128H65.4877C65.7117 70.128 65.8237 70.024 65.8237 69.816V65.424C65.8237 65.216 65.7117 65.112 65.4877 65.112H60.8077L61.2157 64.632Z" fill="white"/>
<path d="M50 2.5C76.2335 2.5 97.5 23.7665 97.5 50C97.5 76.2335 76.2335 97.5 50 97.5C23.7665 97.5 2.5 76.2335 2.5 50C2.5 23.7665 23.7665 2.5 50 2.5Z" stroke="white" stroke-width="5"/>
</g>
<defs>
<clipPath id="clip0_2012_12">
<rect width="100" height="100" fill="white"/>
</clipPath>
</defs>
</svg>
